<svg xmlns="http://www.w3.org/2000/svg" width="1000" height="520" viewBox="0 0 1000 520">
  <rect width="100%" height="100%" fill="#ffffff"/>
  <text x="30" y="40" font-size="26" font-family="Arial" font-weight="700">How Families Duplicate & Grow</text>
  <defs>
    <marker id="arrow" viewBox="0 0 10 10" refX="9" refY="5" markerWidth="9" markerHeight="9" orient="auto">
      <path d="M 0 0 L 10 5 L 0 10 z" fill="#1f6feb"/>
    </marker>
  </defs>
  <rect x="40" y="90" rx="16" ry="16" width="260" height="120" fill="#f3f6ff" stroke="#0b0f19" stroke-width="2"/>
  <text x="170" y="145" text-anchor="middle" font-size="16" font-family="Arial">Randolph Hub</text>
  <text x="170" y="170" text-anchor="middle" font-size="14" font-family="Arial">Public site + repo</text>
  <rect x="370" y="90" rx="16" ry="16" width="260" height="120" fill="#f3f6ff" stroke="#0b0f19" stroke-width="2"/>
  <text x="500" y="145" text-anchor="middle" font-size="16" font-family="Arial">Fork / Copy</text>
  <text x="500" y="170" text-anchor="middle" font-size="14" font-family="Arial">YourFamily_Genealogy_Hub</text>
  <rect x="700" y="90" rx="16" ry="16" width="260" height="120" fill="#f3f6ff" stroke="#0b0f19" stroke-width="2"/>
  <text x="830" y="145" text-anchor="middle" font-size="16" font-family="Arial">Your Family</text>
  <text x="830" y="170" text-anchor="middle" font-size="14" font-family="Arial">Private by default</text>
  <line x1="300" y1="150" x2="370" y2="150" stroke="#1f6feb" stroke-width="2" marker-end="url(#arrow)"/>
  <line x1="630" y1="150" x2="700" y2="150" stroke="#1f6feb" stroke-width="2" marker-end="url(#arrow)"/>
  <rect x="200" y="260" rx="16" ry="16" width="260" height="120" fill="#ffffff" stroke="#0b0f19" stroke-width="2"/>
  <text x="330" y="315" text-anchor="middle" font-size="16" font-family="Arial">Evidence Added</text>
  <text x="330" y="340" text-anchor="middle" font-size="14" font-family="Arial">Sources + confidence</text>
  <rect x="540" y="260" rx="16" ry="16" width="260" height="120" fill="#ffffff" stroke="#0b0f19" stroke-width="2"/>
  <text x="670" y="315" text-anchor="middle" font-size="16" font-family="Arial">Pages Published</text>
  <text x="670" y="340" text-anchor="middle" font-size="14" font-family="Arial">GitHub Pages</text>
  <line x1="500" y1="210" x2="330" y2="260" stroke="#1f6feb" stroke-width="2" marker-end="url(#arrow)"/>
  <line x1="500" y1="210" x2="670" y2="260" stroke="#1f6feb" stroke-width="2" marker-end="url(#arrow)"/>
</svg>
